<svg id="visual" viewBox="0 0 540 960" width="540" height="960" xmlns="http://www.w3.org/2000/svg" xmlns:xlink="http://www.w3.org/1999/xlink" version="1.1"><rect x="0" y="0" width="540" height="960" fill="#8284bf"></rect><defs><linearGradient id="grad1_0" x1="0%" y1="0%" x2="100%" y2="100%"><stop offset="30%" stop-color="#6600ff" stop-opacity="1"></stop><stop offset="70%" stop-color="#6600ff" stop-opacity="1"></stop></linearGradient></defs><defs><linearGradient id="grad1_1" x1="0%" y1="0%" x2="100%" y2="100%"><stop offset="30%" stop-color="#6600ff" stop-opacity="1"></stop><stop offset="70%" stop-color="#675ce7" stop-opacity="1"></stop></linearGradient></defs><defs><linearGradient id="grad1_2" x1="0%" y1="0%" x2="100%" y2="100%"><stop offset="30%" stop-color="#8284bf" stop-opacity="1"></stop><stop offset="70%" stop-color="#675ce7" stop-opacity="1"></stop></linearGradient></defs><defs><linearGradient id="grad2_0" x1="0%" y1="0%" x2="100%" y2="100%"><stop offset="30%" stop-color="#6600ff" stop-opacity="1"></stop><stop offset="70%" stop-color="#6600ff" stop-opacity="1"></stop></linearGradient></defs><defs><linearGradient id="grad2_1" x1="0%" y1="0%" x2="100%" y2="100%"><stop offset="30%" stop-color="#675ce7" stop-opacity="1"></stop><stop offset="70%" stop-color="#6600ff" stop-opacity="1"></stop></linearGradient></defs><defs><linearGradient id="grad2_2" x1="0%" y1="0%" x2="100%" y2="100%"><stop offset="30%" stop-color="#675ce7" stop-opacity="1"></stop><stop offset="70%" stop-color="#8284bf" stop-opacity="1"></stop></linearGradient></defs><g transform="translate(540, 0)"><path d="M0 486C-50.6 448.7 -101.2 411.4 -163 393.6C-224.8 375.8 -297.7 377.5 -343.7 343.7C-389.6 309.8 -408.5 240.4 -427.8 177.2C-447 114 -466.5 57 -486 0L0 0Z" fill="#7372d5"></path><path d="M0 324C-33.7 299.1 -67.5 274.2 -108.7 262.4C-149.9 250.5 -198.5 251.7 -229.1 229.1C-259.7 206.5 -272.4 160.3 -285.2 118.1C-298 76 -311 38 -324 0L0 0Z" fill="#6241f5"></path><path d="M0 162C-16.9 149.6 -33.7 137.1 -54.3 131.2C-74.9 125.3 -99.2 125.8 -114.6 114.6C-129.9 103.3 -136.2 80.1 -142.6 59.1C-149 38 -155.5 19 -162 0L0 0Z" fill="#6600ff"></path></g><g transform="translate(0, 960)"><path d="M0 -486C49.1 -444.4 98.3 -402.8 159.6 -385.3C220.9 -367.8 294.3 -374.4 343.7 -343.7C393 -312.9 418.2 -244.9 437.9 -181.4C457.6 -117.9 471.8 -58.9 486 0L0 0Z" fill="#7372d5"></path><path d="M0 -324C32.8 -296.3 65.5 -268.5 106.4 -256.8C147.2 -245.2 196.2 -249.6 229.1 -229.1C262 -208.6 278.8 -163.3 291.9 -120.9C305.1 -78.6 314.5 -39.3 324 0L0 0Z" fill="#6241f5"></path><path d="M0 -162C16.4 -148.1 32.8 -134.3 53.2 -128.4C73.6 -122.6 98.1 -124.8 114.6 -114.6C131 -104.3 139.4 -81.6 146 -60.5C152.5 -39.3 157.3 -19.6 162 0L0 0Z" fill="#6600ff"></path></g></svg>